<?xml version="1.0" standalone="no"?><!DOCTYPE svg PUBLIC "-//W3C//DTD SVG 1.1//EN" "http://www.w3.org/Graphics/SVG/1.1/DTD/svg11.dtd"><svg t="1557475496083" class="icon" style="" viewBox="0 0 1024 1024" version="1.1" xmlns="http://www.w3.org/2000/svg" p-id="1095" xmlns:xlink="http://www.w3.org/1999/xlink" width="64" height="64"><defs><style type="text/css"></style></defs><path d="M985.6 550.4H35.2c-19.2 0-35.2-16-35.2-35.2V512c0-19.2 16-35.2 35.2-35.2h950.4c19.2 0 35.2 16 35.2 35.2v1.6c1.6 19.2-14.4 36.8-35.2 36.8z" p-id="1096"></path><path d="M473.6 988.8V38.4c0-19.2 16-35.2 35.2-35.2h3.2c19.2 0 35.2 16 35.2 35.2v950.4c0 19.2-16 35.2-35.2 35.2h-1.6c-19.2 0-36.8-16-36.8-35.2z" p-id="1097"></path></svg>